<?xml version="1.0" encoding="UTF-8" standalone="no"?>
<!DOCTYPE svg PUBLIC "-//W3C//DTD SVG 1.1//EN" "http://www.w3.org/Graphics/SVG/1.1/DTD/svg11.dtd">
<svg width="100%" height="100%" viewBox="0 0 1526 206" version="1.1" xmlns="http://www.w3.org/2000/svg" xmlns:xlink="http://www.w3.org/1999/xlink" xml:space="preserve" xmlns:serif="http://www.serif.com/" style="fill-rule:evenodd;clip-rule:evenodd;stroke-linejoin:round;stroke-miterlimit:2;">
    <g transform="matrix(1,0,0,1,-19534,-19889)">
        <g id="Artboard33" transform="matrix(0.98568,0,0,0.37069,19448.7,16003.2)">
            <rect x="86.644" y="10483.1" width="1547.9" height="553.12" style="fill:none;"/>
            <g transform="matrix(1.5745,0,0,4.18666,-38753.2,-216295)">
                <circle cx="25612.6" cy="54262" r="21.884" style="fill:rgb(0,200,84);"/>
            </g>
            <g transform="matrix(0.628445,0,0,1.67106,-15031.6,-42500.5)">
                <path d="M24279.8,31855.3L24173.6,31855.3L24173.6,31759.9L24111.6,31759.9L24111.6,31999.9L24173.6,31999.9L24173.6,31904.4L24279.8,31904.4L24279.8,31999.9L24341.7,31999.9L24341.7,31759.9L24279.8,31759.9L24279.8,31855.3Z" style="fill:rgb(35,41,50);fill-rule:nonzero;"/>
                <path d="M24628.4,31999.9L24534,31759.9L24451.4,31759.9L24357,31999.9L24421.9,31999.9L24440.3,31948L24545,31948L24563.5,31999.9L24628.4,31999.9ZM24482.3,31830.4C24485.7,31821.6 24486.4,31812 24486.8,31801.5C24486.8,31798 24488.2,31795.3 24492.7,31795.3C24497.1,31795.3 24498.9,31798 24498.9,31801.5C24499.3,31812 24499.7,31821.6 24503,31830.4L24528.4,31901.7L24456.9,31901.7L24482.3,31830.4Z" style="fill:rgb(35,41,50);fill-rule:nonzero;"/>
                <rect x="24640.8" y="31759.9" width="61.951" height="239.999" style="fill:rgb(35,41,50);fill-rule:nonzero;"/>
                <path d="M24727.1,31809L24808.2,31809L24808.2,31999.9L24870.2,31999.9L24870.2,31809L24951.3,31809L24951.3,31759.9L24727.1,31759.9L24727.1,31809Z" style="fill:rgb(35,41,50);fill-rule:nonzero;"/>
                <rect x="24975.6" y="31759.9" width="61.951" height="239.999" style="fill:rgb(35,41,50);fill-rule:nonzero;"/>
                <path d="M25249.9,31867.2C25270.2,31859.1 25286,31844.4 25286,31823.6C25286,31780.7 25251.4,31759.9 25194.6,31759.9L25073.6,31759.9L25073.6,31999.9L25215.9,31999.9C25269,31999.9 25297.8,31970.5 25297.8,31931C25297.8,31907.5 25283.8,31886.7 25251,31880.2C25248,31879.9 25245.1,31878.2 25245.1,31873.7C25245.1,31870.7 25245.8,31869 25249.9,31867.2ZM25190.9,31807.6C25213.4,31807.6 25224.1,31814.4 25224.1,31829.4C25224.1,31844.1 25211.9,31854 25189.4,31854L25135.6,31854L25135.6,31807.6L25190.9,31807.6ZM25135.6,31952.1L25135.6,31900.3L25196,31900.3C25221.1,31900.3 25235.9,31910.5 25235.9,31926.2C25235.9,31942.9 25222.6,31952.1 25197.5,31952.1L25135.6,31952.1Z" style="fill:rgb(35,41,50);fill-rule:nonzero;"/>
                <path d="M25387.2,31999.9L25387.2,31918L25419.7,31918C25459.1,31918 25469.5,31926.9 25475,31952.5L25485.3,31999.9L25555.4,31999.9L25533.3,31935.8C25529.2,31924.2 25520.7,31908.8 25484.2,31905.4C25480.5,31905.1 25477.6,31903.7 25477.6,31899.3C25477.6,31894.9 25480.9,31893.5 25483.8,31893.2C25522.2,31888.4 25543.6,31859.1 25543.6,31833.5C25543.6,31791.2 25515.6,31759.9 25442.5,31759.9L25325.3,31759.9L25325.3,31999.9L25387.2,31999.9ZM25387.2,31809L25439.2,31809C25467.6,31809 25481.6,31818.8 25481.6,31840.3C25481.6,31859.4 25462.5,31871.7 25435.5,31871.7L25387.2,31871.7L25387.2,31809Z" style="fill:rgb(35,41,50);fill-rule:nonzero;"/>
                <path d="M25827.5,31999.9L25733.1,31759.9L25650.5,31759.9L25556.1,31999.9L25621,31999.9L25639.4,31948L25744.1,31948L25762.6,31999.9L25827.5,31999.9ZM25681.4,31830.4C25684.8,31821.6 25685.5,31812 25685.9,31801.5C25685.9,31798 25687.3,31795.3 25691.8,31795.3C25696.2,31795.3 25698,31798 25698,31801.5C25698.4,31812 25698.8,31821.6 25702.1,31830.4L25727.5,31901.7L25656,31901.7L25681.4,31830.4Z" style="fill:rgb(35,41,50);fill-rule:nonzero;"/>
                <path d="M25901.9,31999.9L25901.9,31844.4C25901.9,31834.9 25897.8,31826 25893.4,31817.5C25890.8,31812.4 25890.1,31807.9 25896,31806.9C25898.6,31806.6 25900.8,31809 25901.9,31811L25987.5,31999.9L26081.9,31999.9L26081.9,31759.9L26019.9,31759.9L26019.9,31915.3C26019.9,31924.9 26024,31933.7 26028.4,31942.2C26031,31947.4 26031.7,31952.1 26025.8,31952.8C26023.2,31953.2 26021,31950.8 26019.9,31948.7L25934.4,31759.9L25840,31759.9L25840,31999.9L25901.9,31999.9Z" style="fill:rgb(35,41,50);fill-rule:nonzero;"/>
                <path d="M26117.9,31759.9L26117.9,31999.9L26223.8,31999.9C26312.6,31999.9 26353.9,31943.3 26353.9,31879.9C26353.9,31816.5 26314.9,31759.9 26223.8,31759.9L26117.9,31759.9ZM26179.9,31950.8L26179.9,31809L26224.9,31809C26269.9,31809 26292,31843.7 26292,31879.9C26292,31916 26269.9,31950.8 26224.9,31950.8L26179.9,31950.8Z" style="fill:rgb(35,41,50);fill-rule:nonzero;"/>
            </g>
        </g>
    </g>
</svg>
