<svg width="218" height="218" viewBox="0 0 218 218" fill="none" xmlns="http://www.w3.org/2000/svg">
<rect x="37" y="56" width="124" height="92" fill="white"/>
<path d="M53.7182 26.2099C93.7617 23.2969 123.188 23.231 162.384 26.205C175.775 27.221 186.421 37.8583 187.492 51.245C190.684 91.1697 190.925 120.651 187.662 160.475C186.543 174.126 175.411 184.773 161.731 185.46C122.517 187.43 93.3282 187.532 54.2953 185.561C40.1509 184.847 28.8745 173.481 28.2465 159.333C26.5458 121.008 26.6 91.873 28.3198 52.4472C28.9268 38.5301 39.8246 27.2205 53.7182 26.2099ZM73.436 66.1044V142.729H91.9565V111.937H122.151V142.729H140.633V66.1044H122.151V96.8593H91.9565V66.1044H73.436Z" fill="#FC334C"/>
</svg>
